<svg width="119" height="75" viewBox="0 0 119 75" fill="none" xmlns="http://www.w3.org/2000/svg">
<path d="M93.7549 24C95.6855 24 97.2147 24.5734 98.3425 25.7203C99.4893 26.8481 100.063 28.5493 100.063 30.8239V39.6549H95.5899V31.512C95.5899 30.2887 95.3319 29.3808 94.8158 28.7882C94.3188 28.1765 93.602 27.8707 92.6654 27.8707C91.6141 27.8707 90.7826 28.2148 90.171 28.9029C89.5593 29.5719 89.2535 30.5754 89.2535 31.9134V39.6549H84.7806V31.512C84.7806 29.0845 83.8058 27.8707 81.8561 27.8707C80.8239 27.8707 80.002 28.2148 79.3903 28.9029C78.7787 29.5719 78.4728 30.5754 78.4728 31.9134V39.6549H74V24.2294H78.2721V26.007C78.8456 25.3571 79.5432 24.8602 80.3652 24.5161C81.2062 24.172 82.1237 24 83.1177 24C84.2072 24 85.1916 24.2198 86.0709 24.6595C86.9501 25.08 87.6574 25.7012 88.1926 26.5231C88.8234 25.7203 89.6166 25.0991 90.5724 24.6595C91.5472 24.2198 92.6081 24 93.7549 24Z" fill="#f8f8f8"/>
<path d="M118.203 31.9995C118.203 32.0568 118.174 32.4582 118.117 33.2037H106.448C106.658 34.1594 107.155 34.9144 107.939 35.4688C108.722 36.0231 109.697 36.3002 110.863 36.3002C111.666 36.3002 112.373 36.1856 112.985 35.9562C113.616 35.7077 114.199 35.3254 114.734 34.8093L117.114 37.3898C115.661 39.0528 113.539 39.8842 110.748 39.8842C109.009 39.8842 107.47 39.5497 106.132 38.8807C104.794 38.1926 103.762 37.2464 103.036 36.0422C102.309 34.838 101.946 33.4713 101.946 31.9421C101.946 30.4321 102.3 29.0749 103.007 27.8707C103.733 26.6474 104.718 25.7012 105.96 25.0322C107.222 24.3441 108.627 24 110.175 24C111.685 24 113.052 24.3249 114.275 24.9748C115.498 25.6247 116.454 26.5614 117.142 27.7847C117.85 28.9889 118.203 30.3938 118.203 31.9995ZM110.204 27.3833C109.191 27.3833 108.34 27.67 107.652 28.2434C106.964 28.8169 106.543 29.6006 106.39 30.5945H113.988C113.835 29.6197 113.415 28.8456 112.727 28.2721C112.039 27.6796 111.198 27.3833 110.204 27.3833Z" fill="#f8f8f8"/>
<path d="M35.4074 23.8491L32.3395 39.2746H28.096L28.3827 37.7549C27.1021 38.9209 25.5251 39.5039 23.6519 39.5039C22.4477 39.5039 21.339 39.2268 20.3259 38.6724C19.3129 38.1181 18.5005 37.3249 17.8888 36.2927C17.2963 35.2414 17 34.0085 17 32.594C17 30.8928 17.3727 29.3636 18.1182 28.0065C18.8828 26.6302 19.915 25.5598 21.2148 24.7952C22.5146 24.0115 23.9482 23.6197 25.5156 23.6197C27.8858 23.6197 29.5583 24.3938 30.5331 25.9421L30.9345 23.8491H35.4074ZM25.0281 35.8053C25.9074 35.8053 26.6911 35.595 27.3792 35.1745C28.0674 34.7348 28.6026 34.1327 28.9849 33.3681C29.3672 32.6036 29.5583 31.7243 29.5583 30.7303C29.5583 29.679 29.2429 28.8475 28.6121 28.2359C28.0005 27.6242 27.1403 27.3184 26.0317 27.3184C25.1524 27.3184 24.3687 27.5382 23.6806 27.9778C22.9924 28.3983 22.4572 28.9909 22.0749 29.7555C21.6926 30.5201 21.5015 31.3993 21.5015 32.3933C21.5015 33.4446 21.8073 34.2761 22.419 34.8878C23.0498 35.4994 23.9195 35.8053 25.0281 35.8053Z" fill="url(#paint0_linear)"/>
<path d="M40.9534 39.5039C39.6153 39.5039 38.3442 39.3606 37.14 39.0739C35.9549 38.768 35.0278 38.3762 34.3588 37.8983L36.0791 34.6584C36.7482 35.098 37.5605 35.4516 38.5163 35.7192C39.4911 35.9868 40.4659 36.1206 41.4408 36.1206C42.4539 36.1206 43.2089 35.9964 43.7059 35.7479C44.2028 35.4803 44.4513 35.1076 44.4513 34.6297C44.4513 34.2474 44.2315 33.9703 43.7919 33.7982C43.3522 33.6262 42.645 33.4446 41.6702 33.2535C40.5615 33.0432 39.644 32.8138 38.9177 32.5653C38.2104 32.3168 37.5892 31.9154 37.054 31.3611C36.5379 30.7877 36.2798 30.0135 36.2798 29.0387C36.2798 27.3375 36.9871 26.009 38.4016 25.0533C39.8352 24.0976 41.7084 23.6197 44.0213 23.6197C45.0917 23.6197 46.1334 23.7344 47.1465 23.9638C48.1596 24.1931 49.0197 24.5085 49.727 24.9099L48.1213 28.1785C46.8598 27.3948 45.3402 27.003 43.5625 27.003C42.5877 27.003 41.8422 27.1463 41.3261 27.4331C40.8291 27.7198 40.5806 28.083 40.5806 28.5226C40.5806 28.924 40.8004 29.2203 41.2401 29.4114C41.6797 29.5835 42.4156 29.7746 43.4478 29.9849C44.5374 30.1951 45.4262 30.4245 46.1143 30.673C46.8216 30.9024 47.4332 31.2942 47.9493 31.8485C48.4654 32.4029 48.7235 33.1579 48.7235 34.1136C48.7235 35.8339 47.9971 37.1624 46.5444 38.099C45.1108 39.0356 43.2471 39.5039 40.9534 39.5039Z" fill="url(#paint1_linear)"/>
<path d="M60.9162 30.5583L66.2205 39.2746H61.0309L57.3609 33.2821L54.637 35.5472L53.8916 39.2746H49.4187L53.6622 18H58.135L55.7552 29.8988L63.1526 23.8491H68.973L60.9162 30.5583Z" fill="url(#paint2_linear)"/>
<path d="M76.1976 15.9024V8.73438C76.1976 5.56737 73.6303 3 70.4633 3H8.81865C5.65163 3 3.08427 5.56737 3.08427 8.73438V48.8751C3.08427 52.0421 5.65164 54.6094 8.81865 54.6094H18.8538L15.5001 70.2603C15.2069 71.6282 16.8462 72.563 17.8742 71.6141L33.1898 57.4766H70.4633C73.6303 57.4766 76.1976 54.9093 76.1976 51.7422V48.8751" stroke="url(#paint3_linear)" stroke-width="4.30079"/>
<defs>
<linearGradient id="paint0_linear" x1="17" y1="18" x2="29.0791" y2="52.1116" gradientUnits="userSpaceOnUse">
<stop stop-color="#485BFF"/>
<stop offset="1" stop-color="#FF59F8"/>
</linearGradient>
<linearGradient id="paint1_linear" x1="17" y1="18" x2="29.0791" y2="52.1116" gradientUnits="userSpaceOnUse">
<stop stop-color="#485BFF"/>
<stop offset="1" stop-color="#FF59F8"/>
</linearGradient>
<linearGradient id="paint2_linear" x1="17" y1="18" x2="29.0791" y2="52.1116" gradientUnits="userSpaceOnUse">
<stop stop-color="#485BFF"/>
<stop offset="1" stop-color="#FF59F8"/>
</linearGradient>
<linearGradient id="paint3_linear" x1="76.1976" y1="3" x2="15.9866" y2="77.547" gradientUnits="userSpaceOnUse">
<stop stop-color="#485BFF"/>
<stop offset="1" stop-color="#FF59F8"/>
</linearGradient>
</defs>
</svg>
