<svg width="48" height="48" viewBox="0 0 48 48" fill="none" xmlns="http://www.w3.org/2000/svg">
<path d="M6 11.9999H10H42" stroke="#E73F5D" stroke-width="4" stroke-linecap="round" stroke-linejoin="round"/>
<path d="M16 12.0001V8.00012C16 6.93926 16.4214 5.92184 17.1716 5.17169C17.9217 4.42155 18.9391 4.00012 20 4.00012H28C29.0609 4.00012 30.0783 4.42155 30.8284 5.17169C31.5786 5.92184 32 6.93926 32 8.00012V12.0001M38 12.0001V40.0001C38 41.061 37.5786 42.0784 36.8284 42.8285C36.0783 43.5787 35.0609 44.0001 34 44.0001H14C12.9391 44.0001 11.9217 43.5787 11.1716 42.8285C10.4214 42.0784 10 41.061 10 40.0001V12.0001H38Z" stroke="#E73F5D" stroke-width="4" stroke-linecap="round" stroke-linejoin="round"/>
</svg>
